<?xml version="1.0" encoding="utf-8"?>
<!-- Generator: Adobe Illustrator 23.0.3, SVG Export Plug-In . SVG Version: 6.00 Build 0)  -->
<svg version="1.1" id="Layer_1" xmlns="http://www.w3.org/2000/svg" xmlns:xlink="http://www.w3.org/1999/xlink" x="0px" y="0px"
	 viewBox="0 0 1024 1024" style="enable-background:new 0 0 1024 1024;" xml:space="preserve">
<style type="text/css">
	.st0{fill-rule:evenodd;clip-rule:evenodd;fill:#181616;}
</style>
<path class="st0" d="M512.4,0.3C229.8,0.3,0.5,229.5,0.5,512.3c0,226.1,146.7,418,350.1,485.7c25.6,4.7,34.9-11.1,34.9-24.7
	c0-12.2-0.4-44.3-0.7-87.1c-142.4,30.9-172.4-68.6-172.4-68.6c-23.3-59.1-56.8-74.9-56.8-74.9c-46.5-31.8,3.5-31.1,3.5-31.1
	c51.4,3.6,78.4,52.8,78.4,52.8c45.7,78.2,119.8,55.6,149,42.5c4.7-33.1,17.9-55.6,32.5-68.4c-113.7-12.9-233.2-56.8-233.2-253
	c0-55.9,19.9-101.6,52.7-137.4c-5.3-13-22.8-65,5-135.5c0,0,43-13.8,140.8,52.5c40.8-11.4,84.6-17,128.2-17.2
	c43.5,0.2,87.3,5.9,128.2,17.2c97.7-66.2,140.6-52.5,140.6-52.5c27.9,70.5,10.4,122.5,5.1,135.5c32.8,35.8,52.6,81.5,52.6,137.4
	c0,196.7-119.7,239.9-233.7,252.6c18.4,15.8,34.8,47,34.8,94.8c0,68.4-0.6,123.6-0.6,140.4c0,13.7,9.2,29.6,35.2,24.6
	c203.2-67.8,349.8-259.6,349.8-485.7C1024.3,229.5,795.1,0.3,512.4,0.3z"/>
</svg>
