<?xml version="1.0" encoding="utf-8"?>
<!-- Generator: Adobe Illustrator 23.0.3, SVG Export Plug-In . SVG Version: 6.00 Build 0)  -->
<svg version="1.1" id="Layer_1" xmlns="http://www.w3.org/2000/svg" xmlns:xlink="http://www.w3.org/1999/xlink" x="0px" y="0px"
	 viewBox="0 0 1024 1024" style="enable-background:new 0 0 1024 1024;" xml:space="preserve">
<style type="text/css">
	.st0{fill-rule:evenodd;clip-rule:evenodd;fill:#FFFFFF;}
</style>
<path class="st0" d="M512.4,0.2c-282.7,0-512,229.2-512,512c0,226.2,146.7,418.1,350.2,485.8c25.6,4.7,34.9-11.1,34.9-24.7
	c0-12.2-0.4-44.4-0.7-87.1c-142.4,30.9-172.5-68.6-172.5-68.6c-23.3-59.1-56.8-74.9-56.8-74.9C109,711,159,711.6,159,711.6
	c51.4,3.6,78.4,52.8,78.4,52.8c45.7,78.2,119.8,55.6,149,42.5c4.7-33.1,17.9-55.6,32.5-68.4c-113.7-12.9-233.2-56.8-233.2-253
	c0-55.9,19.9-101.6,52.7-137.4c-5.3-13-22.8-65,5-135.5c0,0,43-13.8,140.8,52.5c40.8-11.4,84.6-17,128.2-17.2
	c43.5,0.2,87.3,5.9,128.2,17.2c97.7-66.3,140.7-52.5,140.7-52.5c27.9,70.5,10.4,122.5,5.1,135.5c32.8,35.8,52.6,81.5,52.6,137.4
	c0,196.7-119.7,240-233.8,252.6c18.4,15.8,34.8,47.1,34.8,94.8c0,68.4-0.6,123.7-0.6,140.5c0,13.7,9.2,29.6,35.2,24.6
	c203.3-67.8,349.8-259.6,349.8-485.7C1024.4,229.4,795.2,0.2,512.4,0.2z"/>
</svg>
