<svg id="Layer_1" data-name="Layer 1" xmlns="http://www.w3.org/2000/svg" viewBox="0 0 1024 1024"><defs><style>.cls-1{fill:#1877f2;}.cls-2{fill:#fff;}</style></defs><title>facebook-icon</title><path class="cls-1" d="M1024,512C1024,229.23,794.77,0,512,0S0,229.23,0,512c0,255.55,187.23,467.37,432,505.78V660H302V512H432V399.2C432,270.88,508.44,200,625.39,200c56,0,114.61,10,114.61,10V336H675.44c-63.6,0-83.44,39.47-83.44,80v96H734L711.3,660H592v357.78C836.77,979.37,1024,767.55,1024,512Z"/><path class="cls-2" d="M711.3,660,734,512H592V416c0-40.49,19.84-80,83.44-80H740V210s-58.59-10-114.61-10C508.44,200,432,270.88,432,399.2V512H302V660H432v357.78a517.58,517.58,0,0,0,160,0V660Z"/><path class="cls-2" d="M554,556.3a12,12,0,0,0-3.79,23.38c.6.12.82-.26.82-.57s0-1,0-2c-3.34.72-4-1.61-4-1.61a3.19,3.19,0,0,0-1.34-1.76c-1.08-.74.09-.73.09-.73a2.55,2.55,0,0,1,1.84,1.24,2.56,2.56,0,0,0,3.49,1,2.59,2.59,0,0,1,.76-1.61c-2.66-.3-5.47-1.33-5.47-5.93a4.63,4.63,0,0,1,1.24-3.22,4.26,4.26,0,0,1,.1-3.18s1-.32,3.3,1.23a11.45,11.45,0,0,1,6,0c2.28-1.55,3.29-1.23,3.29-1.23a4.42,4.42,0,0,1,.12,3.18,4.67,4.67,0,0,1,1.23,3.22c0,4.61-2.81,5.63-5.48,5.92a2.88,2.88,0,0,1,.81,2.22c0,1.61,0,2.9,0,3.29s.21.69.82.57A12,12,0,0,0,554,556.3"/></svg>