<svg xmlns="http://www.w3.org/2000/svg" xmlns:xlink="http://www.w3.org/1999/xlink" viewBox="0 0 152 152"><defs><style>.cls-1,.cls-4,.cls-5{fill:none;}.cls-2{fill:#fff;}.cls-3{clip-path:url(#clip-path);}.cls-4,.cls-5{stroke:#4d4d4d;stroke-miterlimit:10;stroke-width:4px;}.cls-4{stroke-linecap:round;}.cls-6{fill:#4d4d4d;}</style><clipPath id="clip-path"><rect class="cls-1" width="152" height="152" rx="16" ry="16"/></clipPath></defs><title>Artboard 2 copy</title><g id="bg"><rect class="cls-2" width="152" height="152" rx="16" ry="16"/></g><g id="Layer_8" data-name="Layer 8"><g class="cls-3"><rect class="cls-2" width="152" height="152" rx="16" ry="16"/><path class="cls-4" d="M58.83,96l-2.71,2.71a23.88,23.88,0,0,0,0,33.77l40.81,40.81"/><line class="cls-4" x1="62" y1="148" x2="62" y2="172"/><path class="cls-4" d="M117.67,177.07,69.91,129.31a19.39,19.39,0,0,1,0-27.42L75.8,96"/><path class="cls-5" d="M94.38,94.38,84.21,104.56a15.61,15.61,0,0,0,0,22.08l46.72,46.72"/><line class="cls-4" x1="50" y1="134" x2="50" y2="172"/><path class="cls-4" d="M94.38,94.38A25.92,25.92,0,0,0,102,75.52C101.74,61.25,89.68,50,75.41,50H60.87A10.88,10.88,0,0,0,50,60.87V98"/><path class="cls-5" d="M150,175.48l-51.2-51.2a12.27,12.27,0,0,1,0-17.36l4.18-4.18a37.88,37.88,0,0,0,11-26C114.39,55.43,96.48,38,75.18,38H55.62A17.63,17.63,0,0,0,38,55.62V172"/><path class="cls-5" d="M180.7,172.21l-51.85-51.85a8.14,8.14,0,0,1-1.07-10.23A61.71,61.71,0,0,0,138,76.05C138,41.65,109.53,14,75.12,14H48.37A34.38,34.38,0,0,0,14,48.37V172"/><path class="cls-5" d="M173.23,147.77l-31.09-31.09a4.93,4.93,0,0,1-.84-5.82A73.69,73.69,0,0,0,150,75.34C149.64,34.58,115.84,2,75.08,2H46.25A44.25,44.25,0,0,0,2,46.25V172"/><path class="cls-5" d="M179.65,137.22l-25.43-25.43A85.67,85.67,0,0,0,162,76.45C162.24,28.9,122.35-10,74.81-10H44.62A54.63,54.63,0,0,0-10,44.62V172"/><path class="cls-5" d="M166.92,175.41l-52.84-52.84h0a10,10,0,0,1-.45-13.66A49.81,49.81,0,0,0,126,76.2C126.11,48.59,102.77,26,75.16,26H51.62A25.63,25.63,0,0,0,26,51.62V172"/><path class="cls-4" d="M62,90H76a14,14,0,0,0,0-28H62"/><line class="cls-5" x1="66" y1="62" x2="66" y2="90"/><circle class="cls-6" cx="76" cy="76" r="2"/></g></g></svg>